<svg width="32" height="32" viewBox="0 0 32 32" fill="none" xmlns="http://www.w3.org/2000/svg">
<path d="M29.8013 10.692L21.308 2.19864C19.9002 0.790873 17.9909 0 16 0C14.0091 0 12.0997 0.790873 10.692 2.19864L2.19864 10.692C0.790873 12.0997 0 14.0091 0 16C0 17.9909 0.790873 19.9002 2.19864 21.308L10.692 29.8013C12.0997 31.2091 14.0091 31.9999 16 31.9999C17.9909 31.9999 19.9002 31.2091 21.308 29.8013L29.8013 21.308C31.2091 19.9002 31.9999 17.9909 31.9999 16C31.9999 14.0091 31.2091 12.0997 29.8013 10.692V10.692ZM16 21.2706C15.3078 21.2706 14.6224 21.1343 13.983 20.8694C13.3435 20.6046 12.7625 20.2163 12.273 19.7269C11.7836 19.2375 11.3954 18.6564 11.1305 18.017C10.8656 17.3775 10.7293 16.6921 10.7293 16C10.7293 15.3078 10.8656 14.6224 11.1305 13.983C11.3954 13.3435 11.7836 12.7625 12.273 12.273C12.7625 11.7836 13.3435 11.3954 13.983 11.1305C14.6224 10.8656 15.3078 10.7293 16 10.7293C17.3978 10.7293 18.7385 11.2846 19.7269 12.273C20.7153 13.2615 21.2706 14.6021 21.2706 16C21.2706 17.3978 20.7153 18.7385 19.7269 19.7269C18.7385 20.7153 17.3978 21.2706 16 21.2706Z" fill="white"/>
</svg>
