<?xml version="1.0" standalone="no"?>
<!DOCTYPE svg PUBLIC "-//W3C//DTD SVG 20010904//EN"
 "http://www.w3.org/TR/2001/REC-SVG-20010904/DTD/svg10.dtd">
<svg version="1.0" xmlns="http://www.w3.org/2000/svg"
 width="700.000000pt" height="700.000000pt" viewBox="0 0 700.000000 700.000000"
 preserveAspectRatio="xMidYMid meet">
<metadata>
Created by potrace 1.14, written by Peter Selinger 2001-2017
</metadata>
<g transform="translate(0.000000,700.000000) scale(0.100000,-0.100000)"
fill="#000000" stroke="none">
<path d="M450 6984 c-209 -45 -375 -205 -430 -416 -18 -71 -19 -153 -19 -3063
1 -2526 3 -3000 15 -3055 46 -214 220 -388 434 -434 100 -22 5992 -23 6095 -1
221 46 394 219 440 440 22 106 22 5984 0 6090 -46 218 -219 393 -435 439 -97
21 -6003 21 -6100 0z"/>
</g>
</svg>
